<svg xmlns="http://www.w3.org/2000/svg" class="micromark" viewBox="0 0 26.5 12.69"><title>Monsters and Magic</title><path d="M11.47 11.87V3.24c0-.2-.11-.34-.29-.41l-.68-.25c-.25-.09-.41.04-.41.29v6.39c0 .27-.09.47-.29.67l-.76.7-1.62 1.46c-.34.31-.67.16-.67-.31V3.44c0-.2-.09-.34-.27-.43l-.74-.31c-.25-.11-.41 0-.41.27v7.35c0 .2.13.27.29.4s.18.34 0 .58l-.83 1.1c-.18.25-.4.32-.68.29l-3.67-.45c-.41-.05-.56-.32-.31-.68l.67-.9c.18-.25.38-.32.67-.31.13.02.22-.13.22-.36v-1.8c0-.18-.05-.31-.22-.43L.75 7.2C.46 6.97.43 6.7.7 6.43l.79-.76c.13-.13.18-.27.18-.45v-2.2s-.11-.32-.29-.4l-.65-.23c-.32-.13-.43-.38-.29-.7L1.08.33c.14-.33.4-.42.72-.24l1.84.97c.18.09.31.11.49-.02L5.41.16c.25-.16.5-.18.76-.02l1.87 1.17c.16.11.34.11.5-.02l.49-.32 1.19-.81c.25-.16.47-.2.74-.04l2.63 1.49c.25.14.38.36.38.65v8.07c0 .27-.11.49-.32.67l-1.49 1.19c-.36.29-.67.13-.67-.32Zm-8.21-1.41 1.17.09c.23.02.38-.11.38-.34v-7.6c0-.2-.07-.32-.27-.41-.23-.11-.41 0-.41.29l.04 6.46c0 .31-.11.52-.36.67l-.65.4c-.29.18-.23.41.11.45Zm5.76-7.99.02 6.86c0 .31.22.41.45.18.05-.05.07-.14.07-.32V2.52c0-.2-.09-.34-.27-.41-.16-.05-.27.11-.27.36Z"/><path d="M14.36 12.19 12.87 11a.819.819 0 0 1-.32-.67V2.27c0-.29.13-.5.38-.65L15.55.13c.27-.16.49-.13.74.04l1.19.81.49.32c.16.13.34.13.5.02L20.34.15c.25-.16.5-.14.76.02l1.28.88c.18.13.31.11.49.02L24.71.1c.32-.18.58-.09.72.23l.65 1.35c.14.32.04.58-.29.7l-.65.23c-.18.07-.29.38-.29.4v2.2c0 .18.05.32.18.45l.79.76c.27.27.23.54-.05.77l-.72.56c-.16.13-.22.25-.22.43v1.8c0 .23.09.38.22.36.29-.02.49.05.67.31l.67.9c.25.36.11.63-.31.68l-3.67.45c-.29.04-.5-.04-.68-.29l-.83-1.1c-.18-.23-.16-.45 0-.58s.29-.2.29-.4V2.97c0-.27-.16-.38-.41-.27l-.74.31c-.18.09-.27.23-.27.43v8.34c0 .47-.32.61-.67.31l-1.62-1.46-.76-.7c-.2-.2-.29-.4-.29-.67v-6.4c0-.25-.16-.38-.41-.29l-.68.25a.43.43 0 0 0-.29.41v8.62c0 .45-.31.61-.67.32Zm8.99-2.18-.65-.4c-.25-.14-.36-.36-.36-.67l.04-6.46c0-.29-.18-.4-.41-.29-.2.09-.27.22-.27.41v7.6c0 .23.14.36.38.34l1.17-.09c.34-.04.4-.27.11-.45Zm-6.14-7.9c-.18.07-.27.22-.27.41v6.66c0 .18.02.27.07.32.23.23.45.13.45-.18l.02-6.86c0-.25-.11-.41-.27-.36Z"/></svg>