<svg xmlns="http://www.w3.org/2000/svg" xml:space="preserve" style="fill-rule:evenodd;clip-rule:evenodd;stroke-linejoin:round;stroke-miterlimit:2" viewBox="0 0 564 78" class="wordmark"><title>Monsters and Magic</title><path d="m0-7.688.018 6.86c0 .306.216.414.45.18C.522-.702.54-.792.54-.972v-6.662c0-.198-.09-.342-.27-.414-.162-.054-.27.108-.27.36M-5.762.306l1.171.09c.234.019.378-.107.378-.342v-7.598c0-.198-.072-.324-.27-.414-.235-.108-.414 0-.414.288l.036 6.464c0 .306-.109.522-.361.666l-.648.396c-.288.18-.234.414.108.45m8.211 1.405v-8.625a.427.427 0 0 0-.288-.414l-.684-.252c-.253-.09-.415.036-.415.288V-.9c0 .27-.09.468-.288.666L.018.468l-1.621 1.459c-.342.306-.666.162-.666-.306v-8.337a.452.452 0 0 0-.27-.432l-.738-.306c-.252-.108-.414 0-.414.27V.162c0 .198.126.27.288.397.162.126.18.341 0 .576l-.828 1.098c-.181.252-.396.324-.685.288l-3.673-.45c-.414-.054-.558-.324-.306-.684l.666-.901c.181-.252.378-.324.667-.306.125.018.216-.126.216-.36v-1.8a.492.492 0 0 0-.216-.433l-.721-.558c-.288-.234-.323-.504-.053-.774l.792-.756a.597.597 0 0 0 .18-.45v-2.197c0-.018-.108-.324-.288-.396l-.649-.234c-.324-.126-.432-.378-.288-.702l.649-1.351c.144-.324.396-.414.72-.234l1.836.973c.18.09.306.108.487-.018l1.278-.883c.252-.162.504-.18.756-.018L-.99-8.84a.406.406 0 0 0 .504-.018L0-9.183l1.188-.81c.252-.162.468-.198.738-.036l2.629 1.495c.252.144.379.36.379.648V.18a.83.83 0 0 1-.325.667L3.115 2.035c-.36.288-.666.126-.666-.324" style="fill-rule:nonzero" transform="matrix(-4.16667 0 0 4.16667 391.321 51.86)"/><path d="m0 4.591 1.674.36c.234.055.396-.072.396-.324L2.052.612c0-.198-.09-.324-.288-.396L.09-.342c-.252-.072-.414.054-.414.306v4.231c0 .216.126.36.324.396M4.537-.252v4.555c0 .198.108.342.288.414l.342.145c.36.144.45.396.216.72L4.519 6.77c-.216.288-.504.324-.774.09L2.34 5.653c-.162-.144-.341-.162-.504-.036L.108 6.86c-.234.162-.468.198-.738.072l-1.783-.846c-.27-.126-.396-.325-.396-.631V.468c0-.288.108-.486.342-.648l1.458-.973 1.675-1.17a.651.651 0 0 1 .738-.036L4.159-.883c.252.145.378.343.378.631" style="fill-rule:nonzero" transform="translate(445.464 33.332) scale(4.16667)"/><path d="m0-7.328-1.8-.685c-.252-.089-.414.018-.414.289l.018 3.943c0 .198.108.342.288.414l1.782.666c.252.09.414-.054.414-.306v-3.907A.427.427 0 0 0 0-7.328M-1.098 2.791l-2.485-1.026c-.414-.18-.432-.487-.054-.72l1.242-.739c.252-.162.469-.162.739-.018l1.512.775c.252.126.432 0 .432-.271v-2.106c0-.288-.18-.414-.432-.234l-1.026.702c-.252.162-.486.18-.738.018l-2.413-1.44c-.252-.163-.36-.361-.36-.649v-4.069c0-.27.108-.486.324-.666l2.935-2.341c.234-.198.486-.234.756-.072l3.007 1.693.054.036c.252.144.378.341.378.63L2.809.45c0 .288-.108.486-.378.648l-.973.576c-.144.091-.179.108-.161.126l-1.657.955c-.234.144-.486.144-.738.036" style="fill-rule:nonzero" transform="translate(491.964 65.44) scale(4.16667)"/><path d="m0-9.867 1.98 5.258c.09.252-.018.396-.27.432l-.72.09c-.378.054-.54.288-.414.648l1.17 3.277c.108.306-.162.45-.36.198l-3.853-4.915c-.18-.217-.09-.432.18-.468l.414-.055c.378-.053.522-.305.36-.666l-1.746-3.655c-.108-.252 0-.432.27-.432h2.574c.199 0 .343.108.415.288" style="fill-rule:nonzero" transform="translate(522.564 64.84) scale(4.16667)"/><path d="m0-3.853-1.999-.738c-.251-.09-.414.036-.414.288v3.835c0 .198.108.342.288.414L.414.9c.414.163.432.487.072.739l-1.494 1.026a.653.653 0 0 1-.739.036L-4.52 1.207c-.251-.144-.377-.343-.377-.631v-4.159c0-.288.107-.468.342-.648L-1.368-6.5c.234-.162.486-.198.756-.054l2.089 1.027c.359.179.396.486.107.756l-.846.774c-.234.216-.468.252-.738.144" style="fill-rule:nonzero" transform="translate(556.539 50.81) scale(4.16667)"/><path d="M0 11.37c.089-.089.215-.203.378-.345.163-.14.334-.281.512-.423l.523-.411c.17-.134.308-.237.412-.312l-3.494-3.871-.912.601-.156 3.671c.179 0 .39.037.634.111.245.074.498.167.757.278A9.693 9.693 0 0 1 0 11.37m7.698 3.315-4.227-3.07a27.53 27.53 0 0 0-.734.49 25.71 25.71 0 0 0-1.836 1.368c-.319.259-.612.522-.879.79a13.966 13.966 0 0 0-1.535-.846 23.71 23.71 0 0 0-2.959-1.157c-.431-.133-.794-.23-1.09-.289l-.201-.045c.059-.8.115-1.58.167-2.336.052-.756.078-1.52.078-2.292 0-.341-.011-.671-.033-.989-.022-.32-.049-.62-.078-.902l2.292-1.246-1.447-1.602a42.032 42.032 0 0 0-.122-1.98 102.88 102.88 0 0 0-.167-1.735c1.038-.297 1.902-.646 2.592-1.046.69-.4 1.258-.771 1.702-1.113.223.119.471.234.746.345a20.262 20.262 0 0 0 1.535.556c.215.067.367.116.456.145.059-.044.137-.141.234-.289.096-.148.159-.245.189-.289.148.089.326.174.534.255a6.616 6.616 0 0 0 1.234.357c.201.037.368.063.501.077-.208.356-.393.723-.556 1.102A46.57 46.57 0 0 0 3.56.234a72.711 72.711 0 0 1-.679 1.635 44.347 44.347 0 0 1-.989 2.136 26.87 26.87 0 0 1-.424-2.002 53.277 53.277 0 0 0-.467-2.336A8.477 8.477 0 0 1-.078-.567a6.291 6.291 0 0 1-.967-.367c-.193.208-.416.39-.668.545-.253.156-.46.264-.623.323l.2 1.535 5.518 6.408 1.179-3.471c.223.089.501.182.835.278a34.37 34.37 0 0 0 2.403.601c.452.096.901.189 1.346.278a2.185 2.185 0 0 1-.512.445 3.895 3.895 0 0 1-.679.345 4.82 4.82 0 0 1-.778.233c-.275.06-.531.089-.768.089L5.273 9.59l3.961 3.004-1.536 2.091Z" style="fill-rule:nonzero" transform="translate(322.956 13.813) scale(4.16667)"/><path d="m0-7.688.018 6.86c0 .306.216.414.45.18C.522-.702.54-.792.54-.972v-6.662c0-.198-.09-.342-.27-.414-.162-.054-.27.108-.27.36M-5.762.306l1.171.09c.234.019.378-.108.378-.342v-7.598c0-.198-.072-.324-.27-.414-.235-.108-.414 0-.414.288l.036 6.464c0 .306-.109.522-.361.666l-.648.396c-.288.18-.234.415.108.45m8.211 1.405v-8.625a.427.427 0 0 0-.288-.414l-.684-.252c-.253-.09-.415.036-.415.288V-.9c0 .27-.09.468-.288.666L.018.468l-1.621 1.459c-.342.306-.666.162-.666-.306v-8.337a.452.452 0 0 0-.27-.432l-.738-.306c-.252-.108-.414 0-.414.27V.162c0 .198.126.271.288.397.162.126.18.341 0 .576l-.828 1.098c-.181.252-.396.324-.685.288l-3.673-.45c-.414-.054-.558-.324-.306-.684l.666-.901c.181-.252.378-.324.667-.306.125.018.216-.126.216-.36v-1.8a.493.493 0 0 0-.216-.433l-.721-.558c-.288-.234-.323-.504-.053-.774l.792-.756a.597.597 0 0 0 .18-.45v-2.197c0-.018-.108-.324-.288-.396l-.649-.234c-.324-.126-.432-.378-.288-.702l.649-1.351c.144-.324.396-.414.72-.234l1.836.973c.18.09.306.108.487-.018l1.278-.883c.252-.162.504-.18.756-.018L-.99-8.84a.406.406 0 0 0 .504-.018L0-9.183l1.188-.81c.252-.162.468-.198.738-.036l2.629 1.495c.252.144.379.36.379.648V.18a.83.83 0 0 1-.325.667L3.115 2.035c-.36.288-.666.126-.666-.324" style="fill-rule:nonzero" transform="translate(37.582 52.423) scale(4.16667)"/><path d="m0 4.07 1.747.594c.252.09.414-.036.414-.288L2.143.379c0-.199-.09-.325-.289-.396L.126-.594c-.252-.072-.414.055-.414.307v3.942c0 .199.09.343.288.415m.27 2.593-2.665-1.477a.7.7 0 0 1-.378-.648V.342c0-.288.09-.467.342-.648l3.187-2.25a.651.651 0 0 1 .738-.036l2.755 1.476c.252.144.378.342.378.63v4.268a.723.723 0 0 1-.342.648L1.008 6.627c-.252.179-.486.179-.738.036" style="fill-rule:nonzero" transform="translate(74.55 34.867) scale(4.16667)"/><path d="M0 5.367V.811C0 .596-.126.451-.324.415l-1.675-.36c-.233-.054-.396.072-.396.324l.019 4.303c0 .199.107.343.288.414l.288.109c.36.144.45.414.216.738l-.865 1.188c-.216.288-.504.324-.774.09l-1.368-1.188c-.216-.198-.306-.396-.306-.666l.036-4.664a.427.427 0 0 0-.288-.414l-.343-.144c-.36-.144-.45-.396-.216-.72l.865-1.188c.216-.288.504-.325.774-.09l1.404 1.206c.163.144.342.162.504.036l1.729-1.242c.234-.162.468-.198.738-.072l1.783.846c.27.126.396.324.396.63v5.114c0 .198.108.342.288.414l.342.126c.36.144.432.414.198.738l-.864 1.188c-.216.288-.504.324-.774.09L.306 6.033C.09 5.835 0 5.637 0 5.367" style="fill-rule:nonzero" transform="translate(122.626 32.388) scale(4.16667)"/><path d="m0-6.716 1.134.324c.235.072.397-.054.397-.306v-1.675c0-.324.162-.522.468-.612l2.287-.594a.797.797 0 0 1 .72.126l1.458.99c.234.163.342.36.342.648v1.855c0 .234.126.36.361.36h.647c.415 0 .577.252.415.63l-.307.667c-.126.288-.323.396-.63.396h-.125c-.235 0-.361.126-.361.36V.072c0 .198.108.342.288.414l.343.144c.359.144.45.396.215.72l-.864 1.188c-.216.288-.504.325-.774.091L4.646 1.44c-.216-.198-.307-.396-.307-.666l-.018-4.321c0-.234-.126-.36-.36-.36h-.81c-.432 0-.576-.288-.36-.648l.378-.667c.144-.27.36-.378.648-.378h.144c.234 0 .36-.126.36-.36v-1.603c0-.197-.071-.323-.252-.414l-.864-.468c-.234-.125-.432 0-.432.271L2.737-6.32c0 .27-.072.468-.234.666l-.954 1.152c-.198.235-.415.307-.72.181l-1.747-.685c-.252-.107-.414.019-.414.289v1.044c0 .216.126.342.324.396l3.187.72c.306.072.468.27.468.594V.054c0 .288-.108.468-.342.648l-1.279.937-1.44 1.08c-.234.18-.468.216-.738.089l-2.305-1.007c-.36-.162-.432-.433-.162-.739l.882-.954c.216-.252.468-.288.738-.126l1.891 1.044c.234.126.432.018.432-.252V-.361c0-.215-.108-.341-.306-.396l-3.331-.792c-.306-.072-.468-.27-.468-.594v-1.656c0-.289.108-.486.324-.667l1.314-1.026 1.423-1.08c.216-.18.45-.216.72-.144" style="fill-rule:nonzero" transform="translate(156.75 51.525) scale(4.16667)"/><path d="m0-.684 1.368-.648c.18-.09.27-.216.27-.414v-.468c0-.199-.09-.324-.288-.397l-1.368-.45c-.252-.09-.414.054-.414.306v1.801c0 .27.18.378.432.27m-2.917 2.845v-4.159c0-.289.108-.469.342-.648L.612-4.915c.234-.18.468-.198.738-.036l2.143 1.206c.252.144.36.36.36.648l-.036 1.711c0 .324-.162.522-.45.612L-.144.36c-.198.072-.288.198-.288.396v.361c0 .198.108.342.288.414l2.539.954c.414.162.432.486.072.738L.972 4.25c-.252.162-.486.179-.738.036l-2.773-1.495c-.252-.144-.378-.342-.378-.63" style="fill-rule:nonzero" transform="translate(205.874 44.771) scale(4.16667)"/><path d="M0 5.367.036.703A.427.427 0 0 0-.252.289L-.594.145c-.36-.144-.45-.396-.216-.72l.864-1.188c.216-.288.504-.325.774-.09L2.215-.647c.162.144.36.162.522.036l1.71-1.242c.253-.18.487-.18.739-.018l1.062.63c.342.198.36.504.036.756L5.149.361c-.233.18-.449.198-.719.126L2.899.091c-.234-.072-.396.036-.396.306l.018 4.285c0 .199.108.343.288.414l.288.109c.36.144.45.414.216.738l-.864 1.188c-.216.288-.504.324-.774.09L.306 6.033C.09 5.835 0 5.637 0 5.367" style="fill-rule:nonzero" transform="translate(229.196 32.388) scale(4.16667)"/><path d="m0-9.579 2.071.594c.396.108.486.396.234.72l-.738.9c-.198.235-.433.307-.738.181l-1.747-.685c-.252-.107-.414.019-.414.289v1.044c0 .216.126.342.324.396l3.187.72c.306.072.468.27.468.594v2.017c0 .288-.108.468-.342.648l-1.279.937-1.44 1.08c-.234.18-.468.216-.738.089l-2.305-1.007c-.36-.162-.432-.433-.162-.739l.882-.954c.216-.252.468-.288.738-.126l1.891 1.044c.234.126.432.018.432-.252v-1.135c0-.215-.108-.341-.306-.396l-3.331-.792c-.306-.072-.468-.27-.468-.594v-1.656c0-.289.108-.486.324-.667l1.314-1.026 1.423-1.08c.216-.18.45-.216.72-.144" style="fill-rule:nonzero" transform="translate(272.248 63.454) scale(4.16667)"/></svg>